<svg width="361" height="74" viewBox="0 0 361 74" fill="none" xmlns="http://www.w3.org/2000/svg">
<path d="M360.367 27.8529C357.029 30.5752 348.427 35.7415 340.728 34.6279C333.03 33.5142 327.766 28.0968 326.097 25.5273L316.099 2.58203L316.476 47.7193C316.092 41.7223 314.481 29.0797 311.104 26.4856C306.882 23.2429 304.947 24.3702 304.107 26.9328C303.268 29.4954 299.153 35.7799 294.092 35.0999C289.03 34.4198 286.18 29.0823 283.618 28.2425C281.055 27.4027 277.016 42.7147 277.495 50.2109C277.974 57.7072 268.445 34.2303 267.466 26.7659C266.487 19.3016 267.028 4.21327 265.837 1.27865C264.646 -1.65597 263.988 19.4613 258.63 29.8397C253.272 40.218 246.52 36.6353 246.488 36.1355C246.456 35.6358 235.79 25.7799 233.738 32.9361C231.687 40.0923 229.784 41.7194 226.285 41.943C222.787 42.1666 220.129 39.8275 219.809 34.83C219.49 29.8325 216.491 30.0242 214.748 34.15C213.004 38.2758 212.664 40.8065 211.165 40.9023C209.666 40.9981 209.102 40.0306 208.911 37.0321C208.719 34.0336 207.688 33.5977 204.753 34.7889C201.818 35.98 203.669 41.3814 200.235 42.6046C196.8 43.8277 189.398 22.222 188.919 14.7257C188.439 7.22943 183.57 9.54787 183.624 26.1035C183.679 42.6592 184.765 59.6507 181.331 60.8738C177.896 62.0969 177.255 28.5178 172.63 26.8063C168.004 25.0948 166.293 29.7203 165.113 34.8137C163.933 39.907 160.711 36.6004 159.52 33.6658C158.329 30.7312 154.926 32.454 154.618 35.4845C154.31 38.5149 148.792 46.3945 144.167 44.683C139.541 42.9715 141.189 37.3465 137.563 35.5711C133.937 33.7957 133.193 37.8576 131.045 43.5145C128.898 49.1715 128.825 63.7282 124.359 64.5154C119.893 65.3027 120.06 28.6611 118.497 27.7575C115.87 25.9182 118.212 46.8438 115.277 48.035C112.929 48.9879 111.194 46.9579 110.619 45.8237C109.776 45.7104 107.927 46.0962 107.281 48.5461C106.473 51.6085 103.507 52.2999 102.975 51.8321C102.443 51.3643 94.8511 50.3442 94.6274 46.8459C94.4038 43.3477 93.2972 33.8844 90.5861 38.5738C87.8751 43.2632 90.1091 54.6616 89.3013 57.724C88.655 60.1739 87.0117 58.5394 86.2708 57.4159C86.2138 53.907 85.2874 46.7404 82.0378 46.1453C77.976 45.4013 78.9868 53.3654 77.4875 53.4612C75.9883 53.5571 75.7008 49.0593 73.6379 48.1876C71.575 47.3158 72.49 53.7807 71.4267 52.845C70.3633 51.9094 70.6714 48.879 69.236 49.9743C67.8006 51.0696 69.779 58.4701 67.2483 58.13C64.7176 57.79 65.4296 53.2284 64.866 52.2608C64.3024 51.2933 62.6753 49.3901 62.3353 51.9208C61.9953 54.4515 62.9422 61.416 60.4115 61.076C57.8808 60.736 56.158 57.3336 56.53 55.3026C56.9019 53.2717 54.4124 37.8752 51.9456 38.5347C49.4788 39.1942 49.1728 65.8087 49.9281 69.7748C50.6834 73.7408 49.0564 71.8377 48.4928 70.8701C47.9291 69.9026 46.9822 62.938 45.1748 66.0643C43.3675 69.1906 43.8992 69.6584 42.368 69.2544C40.8368 68.8505 41.1449 65.8201 39.6456 65.9159C38.1464 66.0117 38.8378 68.9783 37.9341 70.5414C37.0304 72.1046 35.4992 71.7007 34.8717 69.7336C34.2442 67.7665 34.7645 60.2064 31.8938 62.3971C29.0231 64.5877 31.8093 68.9258 30.374 70.0211C28.9386 71.1164 24.6531 66.8742 24.3975 62.8762C24.142 58.8782 22.0472 57.5067 21.3352 62.0684C20.6231 66.63 18.6241 66.7578 18.5603 65.7583C18.4964 64.7588 16.5818 58.3579 13.8389 62.5475C11.0959 66.7372 9.03305 65.8655 7.96966 64.9299C6.90627 63.9942 5.58733 59.0606 4.18391 60.6557C2.78049 62.2508 0.909259 64.3776 1.00509 65.8768" stroke="#7CD833" stroke-opacity="0.76" stroke-width="2"/>
</svg>
